<?xml version="1.0" encoding="utf-8"?>
<svg width="300.000000pt" height="300.000000pt" viewBox="0 0 300.000000 300.000000" preserveAspectRatio="xMidYMid meet" xmlns="http://www.w3.org/2000/svg">
  <g transform="matrix(-0.1, 0, 0, -0.1, 276, 300)" fill="#040404" stroke="none">
    <path d="M1400 2714 c-203 -21 -329 -54 -475 -124 -218 -105 -390 -264 -516&#10;-477 -27 -46 -49 -86 -49 -88 0 -3 -9 -24 -20 -48 -31 -67 -57 -155 -75 -247&#10;-9 -47 -18 -95 -21 -108 l-4 -22 187 2 188 3 6 35 c34 180 117 336 245 463&#10;285 282 715 324 1049 102 44 -30 100 -74 125 -100 54 -55 66 -41 -130 -151&#10;-114 -64 -137 -81 -125 -90 8 -6 202 -119 430 -250 229 -131 440 -254 471&#10;-271 31 -18 60 -33 65 -33 5 0 9 240 9 565 0 311 -2 565 -5 565 -3 0 -79 -43&#10;-169 -95 -159 -92 -186 -104 -186 -87 0 5 -39 48 -86 96 -134 135 -311 243&#10;-489 300 -131 41 -330 69 -425 60z" id="node1" class="node" style="fill: rgb(255, 255, 255);"/>
    <path d="M244 1378 c3 -13 13 -61 22 -108 24 -126 77 -280 97 -280 4 0 77 39&#10;161 87 l153 87 -13 31 c-7 17 -20 64 -29 105 -10 41 -19 81 -21 88 -2 9 -49&#10;12 -189 12 l-185 0 4 -22z" id="node2" class="node" style="fill: rgb(255, 255, 255);"/>
    <path d="M650 924 c-63 -37 -132 -76 -152 -87 -21 -11 -38 -24 -38 -28 0 -18&#10;127 -164 187 -215 86 -72 112 -89 123 -78 4 5 46 75 93 155 l84 146 -87 86&#10;c-47 48 -88 87 -91 87 -2 0 -56 -30 -119 -66z" id="node3" class="node" style="fill: rgb(255, 255, 255);"/>
    <path d="M2043 903 l-83 -84 88 -152 c48 -83 92 -152 98 -154 24 -8 205 160&#10;274 254 35 47 41 39 -90 113 -52 30 -115 67 -139 82 -25 15 -50 27 -55 26 -6&#10;-1 -48 -39 -93 -85z" id="node4" class="node" style="fill: rgb(255, 255, 255);"/>
    <path d="M1028 567 c-49 -84 -88 -156 -88 -160 0 -9 75 -40 155 -65 59 -18&#10;227 -52 256 -52 5 0 9 82 9 183 l0 183 -102 26 c-57 14 -112 28 -123 32 -17 6&#10;-31 -13 -107 -147z" id="node5" class="node" style="fill: rgb(255, 255, 255);"/>
    <path d="M1720 700 c-30 -10 -81 -23 -112 -30 l-58 -11 0 -185 c0 -101 3 -184&#10;8 -184 30 0 199 35 252 52 92 29 161 59 158 69 -13 35 -175 308 -183 308 -5&#10;-1 -35 -9 -65 -19z" id="node6" class="node" style="fill: rgb(255, 255, 255);"/>
  </g>
  <g transform="matrix(-0.1, 0, 0, -0.1, 276, 300)" fill="#A1A1A1" stroke="none"/>
</svg>