<?xml version="1.0" encoding="utf-8"?>
<svg id="Capa_1" x="0px" y="0px" viewBox="0 0 141.7 141.7" xmlns="http://www.w3.org/2000/svg">
  <path d="M 60.129 20.918 H 81.423 V 30.317 H 60.129 V 20.918 Z" style="fill: rgb(0, 127, 255);"/>
  <g transform="matrix(1, 0, 0, 1, 0.293716, -0.146858)">
    <path d="M 89.4 41 L 98.6 41 L 98.6 80.5 L 98.5 80.5 C 98.5 81.2 98.6 82 98.6 82.8 C 98.6 95.279 98.211 103.938 89.381 108.253 C 85.263 110.265 79.308 111.332 70.7 111.4 C 44.212 111.61 42.9 101 42.9 82.8 C 42.9 82.1 43 81.3 43 80.5 L 42.9 80.5 L 42.9 41 L 52 41 L 52 13.1 L 89.4 13.1 L 89.4 41 Z M 56.5 41 L 85 41 L 85 17.5 L 56.5 17.5 L 56.5 41 Z" style="fill: rgb(0, 127, 255);"/>
  </g>
  <text x="83.425" y="81.415" transform="matrix(2.303714, 0, 0, 1.280651, -146.765305, -13.407617)" style="font-size: 36px; font-family: Roboto; white-space: pre;"> </text>
  <rect x="67.107" y="93.037" width="9" height="36.8" style="fill: rgb(0, 127, 255);"/>
</svg>